<svg xmlns="http://www.w3.org/2000/svg" viewBox="0 0 57.4 67.28"><defs><style>.cls-1{fill:#a166ff;}</style></defs><g id="Layer_2" data-name="Layer 2"><g id="Layer_1-2" data-name="Layer 1"><path class="cls-1" d="M35.76,44.65H30.41a1,1,0,0,1,0-2H35l1.74-7.2a39.84,39.84,0,0,0-.41-20.14,25.41,25.41,0,0,0-4.78-9.19l-3-3.63L25.63,6.16a25.41,25.41,0,0,0-4.78,9.19,39.84,39.84,0,0,0-.41,20.14l1.74,7.2h4.46a1,1,0,0,1,0,2H21.4a1,1,0,0,1-.95-.75l-1.91-8A41.8,41.8,0,0,1,19,14.81a27.65,27.65,0,0,1,5.15-9.88L27.82.36A1,1,0,0,1,28.58,0h0a1,1,0,0,1,.76.36l3.71,4.57a27.57,27.57,0,0,1,5.15,9.88,41.8,41.8,0,0,1,.42,21.13l-1.91,8A1,1,0,0,1,35.76,44.65Z"/><path class="cls-1" d="M28.58,22.14a4.87,4.87,0,1,1,4.87-4.87A4.87,4.87,0,0,1,28.58,22.14Zm0-7.78a2.91,2.91,0,1,0,2.91,2.91A2.91,2.91,0,0,0,28.58,14.36Z"/><path class="cls-1" d="M18.36,55.51a1,1,0,0,1-.74-.34L14.93,52a12.45,12.45,0,0,1,3.69-19.12,1,1,0,0,1,.86,0,1,1,0,0,1,.55.67l2.33,9.87a1,1,0,0,1,0,.49L19.3,54.8a1,1,0,0,1-.73.69A.75.75,0,0,1,18.36,55.51Zm.07-20.19a10.48,10.48,0,0,0-2,15.44l1.49,1.75,2.48-8.86Z"/><path class="cls-1" d="M38.8,55.51a.75.75,0,0,1-.21,0,1,1,0,0,1-.73-.69l-3-10.87a1,1,0,0,1,0-.49l2.33-9.87a1,1,0,0,1,.54-.67,1,1,0,0,1,.87,0A12.45,12.45,0,0,1,42.23,52l-2.69,3.13A1,1,0,0,1,38.8,55.51Zm-2-11.86,2.48,8.86,1.49-1.75a10.48,10.48,0,0,0-2-15.44Z"/><path class="cls-1" d="M28.58,55.51c-1.08,0-1.73-.94-2.34-6.1a87.78,87.78,0,0,1-.57-9.66c0-5.32.68-6.94,2.91-6.94s2.92,1.62,2.92,6.94a87.81,87.81,0,0,1-.58,9.66C30.31,54.57,29.66,55.51,28.58,55.51Zm0-20.74c-.36,0-.36,0-.48.26a14.23,14.23,0,0,0-.48,4.72,77.19,77.19,0,0,0,1,12.15,77.19,77.19,0,0,0,1-12.15A14.23,14.23,0,0,0,29.06,35C28.94,34.77,28.94,34.77,28.58,34.77Z"/><path class="cls-1" d="M28.55,8.81A9.84,9.84,0,0,1,23.6,7.47l.45-.87.5-.84,0,0a7.85,7.85,0,0,0,8,0,1,1,0,0,1,1,1.68A9.83,9.83,0,0,1,28.55,8.81Z"/><path class="cls-1" d="M1,67.28H.88A1,1,0,0,1,0,66.2a6,6,0,0,1,2.3-4.4,7.86,7.86,0,0,1,4.91-1.34,8.08,8.08,0,0,1,2.2-5.27c2.9-3,7.55-3,7.74-3a1,1,0,1,1,0,2h0s-4,0-6.34,2.45a6.52,6.52,0,0,0-1.66,4.93,1,1,0,0,1-.33.77,1,1,0,0,1-.82.23,6.65,6.65,0,0,0-4.53.88A4.12,4.12,0,0,0,2,66.4,1,1,0,0,1,1,67.28Z"/><path class="cls-1" d="M56.42,67.28a1,1,0,0,1-1-.88,4.12,4.12,0,0,0-1.53-3,6.67,6.67,0,0,0-4.54-.88,1,1,0,0,1-.81-.23,1,1,0,0,1-.33-.77,6.49,6.49,0,0,0-1.67-4.94c-2.33-2.41-6.29-2.44-6.33-2.44a1,1,0,1,1,0-2c.19,0,4.84,0,7.74,3a8.08,8.08,0,0,1,2.2,5.27,7.86,7.86,0,0,1,4.91,1.34,6,6,0,0,1,2.3,4.4,1,1,0,0,1-.87,1.08Z"/><path class="cls-1" d="M12.63,61.65h0a1,1,0,0,1-1-1,3.92,3.92,0,0,1,2.65-3.61,1,1,0,0,1,.64,1.86,1.91,1.91,0,0,0-1.33,1.76A1,1,0,0,1,12.63,61.65Z"/><path class="cls-1" d="M42,66.43a1,1,0,0,1-.43-.11A1,1,0,0,1,41.16,65a3,3,0,0,0-5.18-3A1,1,0,0,1,34.33,61a5,5,0,0,1,1.8-1.66,4.95,4.95,0,0,1,6.78,6.55A1,1,0,0,1,42,66.43Z"/></g></g></svg>