<svg xmlns="http://www.w3.org/2000/svg" viewBox="0 0 60.17 60.17"><defs><style>.cls-1{fill:#a166ff;}</style></defs><g id="Layer_2" data-name="Layer 2"><g id="Layer_1-2" data-name="Layer 1"><path class="cls-1" d="M25.55,50.6a16,16,0,1,1,16-16A16,16,0,0,1,25.55,50.6Zm0-30a14,14,0,1,0,14,14A14,14,0,0,0,25.55,20.61Z"/><path class="cls-1" d="M25.55,41a6.4,6.4,0,1,1,6.4-6.4A6.41,6.41,0,0,1,25.55,41Zm0-10.84A4.44,4.44,0,1,0,30,34.62,4.45,4.45,0,0,0,25.55,30.18Z"/><path class="cls-1" d="M25.55,60.17A25.55,25.55,0,1,1,51.1,34.62,25.58,25.58,0,0,1,25.55,60.17Zm0-49.14A23.59,23.59,0,1,0,49.14,34.62,23.62,23.62,0,0,0,25.55,11Z"/><path class="cls-1" d="M25.55,35.6a1,1,0,0,1-.69-1.67L53.34,5.45a1,1,0,0,1,1.39,1.38L26.24,35.32A1,1,0,0,1,25.55,35.6Z"/><path class="cls-1" d="M46.37,14.78a1,1,0,0,1-1-1V5.39a1,1,0,1,1,2,0V13.8A1,1,0,0,1,46.37,14.78Z"/><path class="cls-1" d="M50.78,10.37a1,1,0,0,1-1-1V1a1,1,0,0,1,2,0V9.39A1,1,0,0,1,50.78,10.37Z"/><path class="cls-1" d="M54.78,14.78H46.37a1,1,0,1,1,0-2h8.41a1,1,0,0,1,0,2Z"/><path class="cls-1" d="M59.19,10.37H50.78a1,1,0,1,1,0-2h8.41a1,1,0,1,1,0,2Z"/></g></g></svg>