<?xml version="1.0" encoding="utf-8"?>
<!-- Generator: Adobe Illustrator 26.3.1, SVG Export Plug-In . SVG Version: 6.00 Build 0)  -->
<svg version="1.1" id="Layer_1" xmlns="http://www.w3.org/2000/svg" xmlns:xlink="http://www.w3.org/1999/xlink" x="0px" y="0px"
	 viewBox="0 0 512 512" style="enable-background:new 0 0 512 512;" xml:space="preserve">
<style type="text/css">
	.st0{fill:#E8E3E3;}
</style>
<rect x="81" y="105" width="350" height="298"/>
<path class="st0" d="M256,0C114.6,0,0,114.6,0,256s114.6,256,256,256s256-114.6,256-256S397.4,0,256,0z M406.6,278.6L303.5,381.7
	c-12.5,12.5-32.8,12.5-45.2,0s-12.5-32.8,0-45.2l48.5-48.5H128c-17.7,0-32-14.3-32-32s14.3-32,32-32h178.8l-49.4-49.4
	c-12.5-12.5-12.5-32.8,0-45.2s32.8-12.5,45.2,0l103.1,103.1c8.8,8.8,10.2,18.6,10.2,23.5S414.6,270.7,406.6,278.6z"/>
</svg>
