<svg id="Layer_1" data-name="Layer 1" xmlns="http://www.w3.org/2000/svg" viewBox="0 0 623 623"><defs><style>.cls-1{fill:#f7931e;stroke:#000;stroke-miterlimit:10;}</style></defs><path class="cls-1" d="M659,75.5H121.91A42.57,42.57,0,0,0,79.46,118v537.1a42.57,42.57,0,0,0,42.45,42.45H659a42.57,42.57,0,0,0,42.45-42.45V118A42.57,42.57,0,0,0,659,75.5Zm27.17,575.92a30.89,30.89,0,0,1-30.8,30.8H125.54a30.89,30.89,0,0,1-30.8-30.8V121.58a30.89,30.89,0,0,1,30.8-30.8H655.38a30.89,30.89,0,0,1,30.8,30.8Z" transform="translate(-78.96 -75)"/></svg>