<svg xmlns="http://www.w3.org/2000/svg" viewBox="0 0 79.78 62.9"><defs><style>.cls-1{fill:#a166ff;}</style></defs><g id="Layer_2" data-name="Layer 2"><g id="Layer_1-2" data-name="Layer 1"><path class="cls-1" d="M26,16.42a1,1,0,0,1-.7-.29l-2.39-2.39a1,1,0,0,1,0-1.39,1,1,0,0,1,1.38,0L26,14.05,30.11,10a1,1,0,0,1,1.38,0,1,1,0,0,1,0,1.38L26.7,16.13A.94.94,0,0,1,26,16.42Z"/><path class="cls-1" d="M56.17,16.42h-20a1,1,0,0,1,0-2h20a1,1,0,0,1,0,2Z"/><path class="cls-1" d="M26,26.81a1,1,0,0,1-.7-.29l-2.39-2.39a1,1,0,0,1,0-1.39,1,1,0,0,1,1.38,0L26,24.44l4.1-4.09a1,1,0,0,1,1.38,0,1,1,0,0,1,0,1.38L26.7,26.52A.94.94,0,0,1,26,26.81Z"/><path class="cls-1" d="M56.17,26.81h-20a1,1,0,0,1,0-2h20a1,1,0,0,1,0,2Z"/><path class="cls-1" d="M26,37.2a1,1,0,0,1-.7-.29l-2.39-2.39a1,1,0,0,1,0-1.39,1,1,0,0,1,1.38,0L26,34.83l4.1-4.09a1,1,0,0,1,1.38,0,1,1,0,0,1,0,1.38L26.7,36.91A1,1,0,0,1,26,37.2Z"/><path class="cls-1" d="M56.17,37.2h-20a1,1,0,0,1,0-2h20a1,1,0,0,1,0,2Z"/><path class="cls-1" d="M72.74,53.91H7a7.05,7.05,0,0,1-7-7V7A7.05,7.05,0,0,1,7,0h65.7a7.05,7.05,0,0,1,7,7V46.87A7.05,7.05,0,0,1,72.74,53.91ZM7,2A5.09,5.09,0,0,0,2,7V46.87A5.09,5.09,0,0,0,7,52h65.7a5.09,5.09,0,0,0,5.08-5.08V7A5.09,5.09,0,0,0,72.74,2Z"/><path class="cls-1" d="M72.72,53.91H7.06a7.06,7.06,0,0,1-7.06-7V45.43a1,1,0,0,1,1-1H78.8a1,1,0,0,1,1,1v1.43A7.06,7.06,0,0,1,72.72,53.91ZM2,46.41v.45A5.09,5.09,0,0,0,7.06,52H72.72a5.1,5.1,0,0,0,5.1-5.09v-.45Z"/><path class="cls-1" d="M44.1,62.9H35.68a1,1,0,0,1-1-1v-9a1,1,0,0,1,1-1H44.1a1,1,0,0,1,1,1v9A1,1,0,0,1,44.1,62.9Zm-7.44-2h6.46v-7H36.66Z"/><path class="cls-1" d="M52.1,62.9H27.68a1,1,0,0,1,0-2H52.1a1,1,0,1,1,0,2Z"/></g></g></svg>